<svg xmlns="http://www.w3.org/2000/svg" xmlns:xlink="http://www.w3.org/1999/xlink" viewBox="0 0 1552.38 1463.49"><defs><style>.cls-1{isolation:isolate;}.cls-2,.cls-27{fill:#955cf1;}.cls-10,.cls-11,.cls-12,.cls-13,.cls-14,.cls-15,.cls-16,.cls-17,.cls-18,.cls-19,.cls-2,.cls-20,.cls-21,.cls-22,.cls-23,.cls-24,.cls-25,.cls-26,.cls-27,.cls-28,.cls-29,.cls-3,.cls-30,.cls-31,.cls-32,.cls-33,.cls-34,.cls-35,.cls-36,.cls-4,.cls-5,.cls-6,.cls-7,.cls-8,.cls-9{fill-rule:evenodd;}.cls-2{opacity:0.3;}.cls-3{fill:url(#linear-gradient);}.cls-4{fill:url(#linear-gradient-2);}.cls-5{fill:#4a9ff8;}.cls-6{fill:#5858f0;}.cls-12,.cls-13,.cls-23,.cls-33,.cls-35,.cls-36,.cls-7,.cls-8,.cls-9{opacity:0.5;}.cls-13,.cls-23,.cls-7,.cls-8,.cls-9{mix-blend-mode:multiply;}.cls-7{fill:url(#linear-gradient-3);}.cls-8{fill:url(#linear-gradient-4);}.cls-9{fill:url(#linear-gradient-5);}.cls-10{fill:#d0e7ff;}.cls-11{fill:url(#linear-gradient-6);}.cls-12,.cls-15{fill:#fffcf1;}.cls-13{fill:url(#linear-gradient-7);}.cls-14{fill:url(#linear-gradient-8);}.cls-16,.cls-33{fill:#fff;}.cls-17{fill:url(#linear-gradient-9);}.cls-18{fill:url(#linear-gradient-10);}.cls-19{fill:#ffdb59;}.cls-20,.cls-22,.cls-25,.cls-27{opacity:0.2;}.cls-20{fill:url(#linear-gradient-11);}.cls-21{fill:url(#linear-gradient-12);}.cls-22{fill:url(#linear-gradient-13);}.cls-23{fill:url(#linear-gradient-14);}.cls-24{fill:url(#linear-gradient-15);}.cls-25{fill:url(#linear-gradient-16);}.cls-26{fill:url(#linear-gradient-17);}.cls-28{fill:url(#linear-gradient-18);}.cls-29{fill:#6d6afd;}.cls-30{fill:#b269eb;}.cls-31{fill:url(#linear-gradient-19);}.cls-32{fill:url(#linear-gradient-20);}.cls-34{fill:url(#linear-gradient-21);}.cls-35{fill:url(#linear-gradient-22);}.cls-36{fill:#ff89db;}</style><linearGradient id="linear-gradient" x1="1042.26" y1="424.17" x2="903.72" y2="1265.07" gradientUnits="userSpaceOnUse"><stop offset="0" stop-color="#d1e8ff"/><stop offset="1" stop-color="#eaefff"/></linearGradient><linearGradient id="linear-gradient-2" x1="1122.68" y1="265.03" x2="799.37" y2="1300.73" gradientUnits="userSpaceOnUse"><stop offset="0" stop-color="#6d6afe"/><stop offset="1" stop-color="#3fb0f7"/></linearGradient><linearGradient id="linear-gradient-3" x1="1271.43" y1="941.7" x2="1353.03" y2="770.09" gradientUnits="userSpaceOnUse"><stop offset="0" stop-color="#965cf2"/><stop offset="1" stop-color="#ff8adc"/></linearGradient><linearGradient id="linear-gradient-4" x1="1260.87" y1="638.17" x2="1412.03" y2="417.36" xlink:href="#linear-gradient-3"/><linearGradient id="linear-gradient-5" x1="549.58" y1="863.26" x2="644.35" y2="656.56" xlink:href="#linear-gradient-3"/><linearGradient id="linear-gradient-6" x1="434.09" y1="638.13" x2="396.55" y2="745.75" gradientUnits="userSpaceOnUse"><stop offset="0" stop-color="#1c8ef4"/><stop offset="1" stop-color="#00cfdd"/></linearGradient><linearGradient id="linear-gradient-7" x1="561.66" y1="339.16" x2="638.42" y2="82.45" xlink:href="#linear-gradient-3"/><linearGradient id="linear-gradient-8" x1="539.63" y1="80.71" x2="452.14" y2="368.09" xlink:href="#linear-gradient-2"/><linearGradient id="linear-gradient-9" x1="1278.13" y1="886.11" x2="1303.8" y2="836.25" xlink:href="#linear-gradient-3"/><linearGradient id="linear-gradient-10" x1="969.19" y1="961.25" x2="907.43" y2="1057.33" gradientUnits="userSpaceOnUse"><stop offset="0" stop-color="#ff66bc"/><stop offset="0.56" stop-color="#ff8adc"/><stop offset="1" stop-color="#ffbba8"/></linearGradient><linearGradient id="linear-gradient-11" x1="985.78" y1="995.63" x2="824.75" y2="1002.54" xlink:href="#linear-gradient-10"/><linearGradient id="linear-gradient-12" x1="1206.58" y1="1203.46" x2="1236.29" y2="1121.8" xlink:href="#linear-gradient-3"/><linearGradient id="linear-gradient-13" x1="1214.3" y1="1237.45" x2="1203.44" y2="1033.95" xlink:href="#linear-gradient-3"/><linearGradient id="linear-gradient-14" x1="933.32" y1="740.24" x2="787.64" y2="167.18" xlink:href="#linear-gradient-3"/><linearGradient id="linear-gradient-15" x1="943.05" y1="329.23" x2="891.08" y2="403.11" xlink:href="#linear-gradient-2"/><linearGradient id="linear-gradient-16" x1="776.25" y1="423.14" x2="764.11" y2="440.32" xlink:href="#linear-gradient-2"/><linearGradient id="linear-gradient-17" x1="786.15" y1="422.04" x2="748.94" y2="450.26" xlink:href="#linear-gradient-2"/><linearGradient id="linear-gradient-18" x1="1292.4" y1="410.08" x2="1237.48" y2="593.17" xlink:href="#linear-gradient-2"/><linearGradient id="linear-gradient-19" x1="1250.48" y1="499.43" x2="1275.68" y2="421.93" xlink:href="#linear-gradient-3"/><linearGradient id="linear-gradient-20" x1="1246.48" y1="495.77" x2="1269.45" y2="456.65" xlink:href="#linear-gradient-2"/><linearGradient id="linear-gradient-21" x1="59.8" y1="117.3" x2="96.5" y2="55.57" xlink:href="#linear-gradient-2"/><linearGradient id="linear-gradient-22" x1="150.83" y1="1105.84" x2="178.35" y2="1034.8" xlink:href="#linear-gradient-3"/></defs><g class="cls-1"><g id="Layer_2" data-name="Layer 2"><g id="Layer_1-2" data-name="Layer 1"><path class="cls-2" d="M1443.35,1415.63,488.73,878.7c-12.05-5.48-29.75-10.65-41.57-3.44l-30.24,18.46c-6.08,3.72-26.08,16-12.71,23.3,39.37,21.35,920.82,519.9,960.79,541.59,7.56,4.1,18.62,5.57,30.23,4.59s23.55-4.12,32.73-9.79l12.08-7.47c8.54-5.27,13.27-11,13.73-16.55S1450.75,1419,1443.35,1415.63Z"/><path class="cls-3" d="M598.24,3.83C591.66.09,584-1.3,576.72,1.42L560.57,7.74c-5.86,30.35,831.85,1423.07,839.34,1430.79l14.42-5.44c9.46-3.73,14.43-13.58,15.82-23.16L1551.88,579a.29.29,0,0,0,0-.09c2-14-2.22-28.52-9.91-40.19-4.13-6.3-9.57-12.06-16.26-15.68Z"/><path class="cls-4" d="M1509.8,529.16,582.32,10C564.77.25,548.07,9.59,545,30.75L423.24,861.69c-3.1,21.17,8.56,46.23,26.1,55.95l927.49,519.18c17.54,9.73,34.28.41,37.38-20.74L1536,585.13C1539.05,564,1527.34,538.89,1509.8,529.16Z"/><path class="cls-5" d="M1509.8,529.16,582.32,10C564.77.25,548.07,9.59,545,30.75l-4.1,28,990.93,554.7,4.15-28.34C1539.05,564,1527.34,538.89,1509.8,529.16Z"/><path class="cls-6" d="M576.55,30.66c7,1.61,12.44,10,12.07,18.71s-6.37,14.48-13.41,12.87-12.43-10-12.06-18.7S569.52,29.05,576.55,30.66Z"/><path class="cls-6" d="M608.58,49.06c7,1.6,12.44,10,12.07,18.7s-6.37,14.49-13.41,12.88-12.43-10-12.06-18.71S601.55,47.45,608.58,49.06Z"/><path class="cls-6" d="M643.24,69.26c7,1.61,12.43,10,12.07,18.71s-6.38,14.49-13.41,12.88-12.44-10-12.07-18.71S636.21,67.65,643.24,69.26Z"/><path class="cls-7" d="M1397,817.23l-166.61-91.47c-9.66-5.35-19.12-6.11-27-3-10.13,3.95-17.71,14.2-19.9,29.14l-18.89,135.49c-3.9,26.6,10.76,58.09,32.81,70.31L1364,1049.14c22.06,12.22,43.1.52,47-26.07l18.88-135.5C1433.76,861,1419.05,829.45,1397,817.23Z"/><path class="cls-8" d="M1153.11,340.68l365.31,178.18-9.68,9.88-35.06,245.07c-3.58,25.13-22.7,36.28-42.67,24.85l-342-195.5-29.69-66.25Z"/><path class="cls-9" d="M694.37,718.79,468.52,593.6,461,605.12l-37.09,252.6L657.81,987.39c24.76,13.72,48.39.58,52.76-29.28l20.7-160.34C735.65,767.91,719.13,732.51,694.37,718.79Z"/><path class="cls-10" d="M684.38,774.18l-27,177.26,4.29.52,11.68-4.53c12.8-5,19.53-18.38,21.4-31.34l19.85-153.72a.6.6,0,0,0,0-.12c2.68-18.91-3-38.59-13.4-54.39-5.6-8.52-13-16.32-22-21.22L211.09,427.16c-8.9-5.06-19.34-6.94-29.11-3.26l-10.3,4c-5.18,1.95-6.78,3.5-6.75,3.83C169.79,477.06,691.2,727.71,684.38,774.18Z"/><path class="cls-11" d="M667.45,691.28,199.32,431.79c-10.4-5.76-20.59-6.58-29.1-3.26-10.91,4.25-19.07,15.28-21.43,31.37L129,613.62c-4.2,28.63,11.58,62.53,35.31,75.69L632.39,948.8c23.74,13.15,46.4.55,50.59-28.07L702.83,767C707,738.37,691.18,704.43,667.45,691.28Z"/><path class="cls-12" d="M661.89,739.11,338.82,561.42a8.06,8.06,0,0,0-6.95-.78c-2.61,1-4.56,3.65-5.13,7.5L325,578.92c-1,6.85,2.77,15,8.44,18.1l323.08,177.7c5.67,3.14,11.09.13,12.09-6.72l1.78-10.79c1-6.84-2.78-15-8.46-18.1ZM482,780.91c5.68,3.15,9.46,11.26,8.46,18.1l-1.78,10.79c-1,6.85-6.42,9.86-12.1,6.71L314.08,729.05c-5.67-3.14-9.44-11.25-8.44-18.09l1.78-10.78c.57-3.85,2.52-6.49,5.12-7.51a8.12,8.12,0,0,1,7,.78L482,780.91Zm170.25,24.22c5.68,3.15,9.47,11.26,8.46,18.1L658.91,834c-1,6.85-6.42,9.86-12.1,6.72L323.74,663c-5.67-3.15-9.44-11.26-8.44-18.1l1.78-10.78c.57-3.85,2.52-6.49,5.12-7.5a8.11,8.11,0,0,1,7,.77Z"/><path class="cls-12" d="M235.86,558.27c-15.27-8.47-31.48,3-31.31,25.06.07,11.45,4.92,23.22,12.58,30.6a29.76,29.76,0,0,0,6.19,4.64c15.25,8.45,31.38-3,31.26-25,0-11.47-4.86-23.3-12.48-30.66a30.62,30.62,0,0,0-6.24-4.68ZM221.14,629a40.28,40.28,0,0,1-8.31-6.21c-10.32-9.91-16.78-25.77-16.93-41.17-.18-29.65,21.56-45.05,42.1-33.68a40.32,40.32,0,0,1,8.42,6.34c10.29,9.88,16.75,25.74,16.81,41.14.13,29.57-21.59,45-42.09,33.58Zm69.94-25.19c3.58,2,5.71,7.19,4.74,11.67l-3.73,17.36c-1,4.43-4.63,6.42-8.21,4.44l-1.82-1a5.14,5.14,0,0,0-7.24,2,56.55,56.55,0,0,1-3.32,4.93c-1.86,2.44-2.17,6.34-.74,9.83l1,2.36c1.84,4.48.74,9.6-2.44,11.31l-12.57,6.8a5.22,5.22,0,0,1-5.1-.18,9.72,9.72,0,0,1-4.08-4.91l-1-2.3a9.62,9.62,0,0,0-4.05-4.85,5.88,5.88,0,0,0-3-.77c-1.78,0-3.59-.06-5.38-.23-2.87-.27-5.27,1.76-6,5.16l-.48,2.26c-1,4.43-4.63,6.41-8.21,4.44l-14-7.78c-3.58-2-5.71-7.18-4.76-11.61l.49-2.26a11.82,11.82,0,0,0-2.74-10c-1.51-1.67-2.92-3.38-4.31-5.15a8.78,8.78,0,0,0-2.68-2.39,5.13,5.13,0,0,0-5-.18l-1.65.84a5.22,5.22,0,0,1-5.1-.17,9.72,9.72,0,0,1-4.08-4.91l-7.28-17.81c-1.84-4.48-.74-9.6,2.43-11.32l1.66-.9c2.47-1.33,3.73-4.7,3.2-8.47q-.5-3.57-.72-7.17c-.23-3.7-2.19-7.22-4.92-8.73l-1.83-1c-3.58-2-5.71-7.18-4.76-11.61l3.74-17.37c1-4.48,4.64-6.46,8.21-4.48l1.83,1a5.11,5.11,0,0,0,7.23-2,53.09,53.09,0,0,1,3.33-4.93c1.85-2.39,2.16-6.3.73-9.79l-1-2.35c-1.82-4.53-.74-9.61,2.44-11.37l12.58-6.8a5.22,5.22,0,0,1,5.1.19,9.79,9.79,0,0,1,4.08,4.9l1,2.35a9.62,9.62,0,0,0,4,4.85,5.85,5.85,0,0,0,3,.78,44,44,0,0,1,5.38.17c2.86.33,5.26-1.71,6-5.1l.49-2.27c1-4.48,4.63-6.46,8.21-4.48l14,7.78c3.58,2,5.71,7.18,4.74,11.65l-.49,2.27a11.68,11.68,0,0,0,2.72,9.93q2.26,2.49,4.34,5.22a8.86,8.86,0,0,0,2.68,2.38,5.16,5.16,0,0,0,5,.19l1.66-.9a5.19,5.19,0,0,1,5.1.18,9.77,9.77,0,0,1,4.08,4.91l7.28,17.81c1.83,4.53.74,9.6-2.44,11.36l-1.66.9c-2.47,1.33-3.73,4.71-3.19,8.42q.5,3.58.72,7.17c.23,3.71,2.18,7.22,4.93,8.74Z"/><path class="cls-13" d="M641.56,132.59l-101-48.84L500.65,333.28l-5.13,35.05L600.57,425c18.25,10.11,35.67.42,38.89-21.59l29.3-212.61C672,168.8,659.81,142.71,641.56,132.59Z"/><path class="cls-10" d="M629.24,191.93l-31.48,203.4,3.29.4,9-3.49c9.85-3.88,15-14.13,16.46-24.1l26-185.28a.41.41,0,0,0,0-.1c2.07-14.54-2.3-29.68-10.3-41.83-4.3-6.54-10-12.54-16.92-16.31l-193.21-105c-6.85-3.89-14.87-5.34-22.39-2.5l-7.92,3.09c-4,1.5-5.21,2.7-5.19,2.94C400.31,58,634.48,156.2,629.24,191.93Z"/><path class="cls-14" d="M616.22,128.19,423,23.19c-8-4.43-15.83-5.06-22.38-2.51C392.25,24,386,32.44,384.17,44.8l-26,185.3c-3.23,22,8.91,48.08,27.16,58.2l193.21,105c18.25,10.11,35.67.42,38.89-21.59l26-185.3C646.66,164.4,634.47,138.3,616.22,128.19Z"/><path class="cls-15" d="M580.43,343.71,386.33,239.52c-4.48-2.4-8.76.07-9.63,5.63-.84,5.37,2.07,11.7,6.55,14.11L577.34,363.44c4.48,2.41,8.84,0,9.71-5.59.84-5.36-2.15-11.74-6.62-14.14Zm8.68-56.41c4.47,2.41,7.45,8.79,6.62,14.15-.87,5.55-5.23,8-9.71,5.59L391.92,202.85c-4.48-2.41-7.39-8.73-6.54-14.1.87-5.56,5.14-8,9.62-5.63L589.11,287.3Zm20-127.9L415,55.22c-4.47-2.41-8.75.07-9.59,5.43l-2.16,13.8c-.83,5.37,2.08,11.7,6.55,14.1l194.1,104.19c4.47,2.4,8.83,0,9.68-5.4l2.14-13.8c.85-5.36-2.15-11.73-6.61-14.14Zm-11.24,71.95c4.47,2.4,7.47,8.68,6.64,14.05-.89,5.66-5.23,8-9.7,5.59L400.67,146.8c-4.48-2.39-7.39-8.64-6.56-14,.89-5.65,5.16-8,9.63-5.64Z"/><path class="cls-10" d="M1388.21,880.35l-23,141.65,3.58.44,9.77-3.8c10.71-4.21,16.32-15.37,17.89-26.2l17-122s0-.07,0-.1c2.24-15.81-2.51-32.27-11.2-45.48-4.68-7.12-10.84-13.64-18.4-17.74l-150-82.33c-7.45-4.23-16.18-5.8-24.35-2.72l-8.61,3.36c-4.33,1.63-5.67,2.93-5.65,3.2C1199.38,766.54,1393.91,841.49,1388.21,880.35Z"/><path class="cls-16" d="M1374.05,811l-150-82.34c-8.7-4.82-17.22-5.5-24.33-2.73-9.12,3.55-16,12.78-17.92,26.23l-17,122c-3.51,23.94,9.69,52.29,29.53,63.29l150,82.34c19.85,11,38.79.46,42.29-23.47l17-122C1407.14,850.41,1393.89,822,1374.05,811Z"/><path class="cls-17" d="M1308.71,819.49a11.88,11.88,0,0,1,1.24,7,45.53,45.53,0,0,1-2.72,8.93l-32,88.76c-1,3-2,5.23-2.66,6.85a5.48,5.48,0,0,1-2.89,3.1c-1.11.49-2.64.15-4.62-1.07-4.79-3-6.91-7.16-6.3-12.24a62,62,0,0,1,2.64-9.25l31.87-88.81c1.63-4.71,3.08-7.76,4.29-9.18s3.17-1.26,5.86.41a13.34,13.34,0,0,1,5.25,5.53Zm8.53,23-2.92,24.69L1361.54,922l-52.93-6.7-2.94,24.79,76.16,6,2.49-21-67.08-82.48Zm-133.11-18.83,67.09,82.57,2.94-24.79-47-55.12,52.69,7.16,3-25-76.17-6.08Z"/><path class="cls-16" d="M799.32,825.06c2.7-18.44,16.74-26.59,31.36-18.16l217.39,122.58c14.6,8.42,24.28,30.23,21.59,48.66l-28.92,196.78c-2.7,18.44-16.76,26.58-31.37,18.16L792,1070.5c-14.62-8.42-24.28-30.23-21.59-48.66Z"/><polygon class="cls-18" points="825.77 1025.64 901.6 920.61 916.3 1031.99 953.25 991.84 975 1110.94 825.77 1025.64"/><path class="cls-19" d="M950.69,925.27c8.11,1.65,14.21,11.14,13.64,21.2s-7.63,16.87-15.73,15.22-14.22-11.14-13.64-21.2S942.58,923.62,950.69,925.27Z"/><path class="cls-20" d="M817,853.22c2.24-15.32,13.91-22.09,26.06-15.09L1023.66,940c12.14,7,20.18,25.12,17.94,40.44l-24,163.5c-2.24,15.32-13.92,22.08-26.06,15.09L810.89,1057.16c-12.15-7-20.18-25.12-17.94-40.44Z"/><path class="cls-16" d="M1092.69,995.45c2.7-18.44,16.74-26.59,31.36-18.16l217.39,122.58c14.61,8.42,24.28,30.23,21.59,48.66l-28.92,196.78c-2.7,18.44-16.75,26.58-31.37,18.16l-217.38-122.58c-14.62-8.42-24.28-30.23-21.59-48.66Z"/><polygon class="cls-21" points="1119.14 1196.03 1194.97 1091 1209.68 1202.38 1246.62 1162.22 1268.37 1281.33 1119.14 1196.03"/><path class="cls-19" d="M1244.06,1095.66c8.11,1.65,14.21,11.14,13.64,21.2s-7.63,16.87-15.73,15.22-14.22-11.14-13.64-21.2S1236,1094,1244.06,1095.66Z"/><path class="cls-22" d="M1110.35,1023.61c2.24-15.32,13.91-22.09,26.06-15.09L1317,1110.37c12.14,7,20.18,25.12,17.94,40.44l-24,163.5c-2.24,15.32-13.92,22.08-26.06,15.09l-180.62-101.85c-12.15-7-20.18-25.12-17.94-40.44Z"/><path class="cls-23" d="M710.18,273.6c4.87-35.91,32.12-51.38,60.86-34.47l296.87,173.34c28.71,16.89,48.08,59.78,43.22,95.7l-45.25,342.39C1061,886.47,1033.73,901.92,1005,885L708.15,711.69c-28.75-16.91-48.09-59.79-43.22-95.7Z"/><path class="cls-10" d="M720.71,271.63c.52-3.88,1.29-21.23,5.95-24.75,6.28-4.77,17.75-11.69,21.14-12.6,8.84-2.36,19-.81,29.46,5.32l277.4,160.75c26.68,15.71,44.69,55.56,40.16,88.94l-42,318.15c-1.58,11.65-5.7,21-11.53,27.53-4,4.43-13.17,10.63-20.86,14.6-7.94,4.11-19.13-7.14-24.17-10.1L718.83,678.71c-26.72-15.72-44.69-55.56-40.17-88.93Z"/><path class="cls-16" d="M710.94,278.45c4.53-33.38,29.85-47.75,56.56-32l275.85,161.06C1070,423.19,1088,463,1083.51,496.42l-42,318.15c-4.52,33.37-29.87,47.72-56.56,32L709.06,685.53C682.34,669.81,664.37,630,668.9,596.6Z"/><path class="cls-24" d="M710.94,278.45c4.53-33.38,29.85-47.75,56.56-32l275.85,161.06C1070,423.19,1088,463,1083.51,496.42L1079.2,528,706.58,310.46Z"/><path class="cls-16" d="M755.29,279.7c6.08,1.44,10.72,8.72,10.37,16.26s-5.57,12.48-11.64,11-10.72-8.72-10.37-16.26S749.22,278.26,755.29,279.7Z"/><path class="cls-16" d="M787.72,299.92c6.08,1.44,10.72,8.72,10.37,16.26s-5.57,12.48-11.64,11S775.73,318.5,776.08,311,781.64,298.47,787.72,299.92Z"/><path class="cls-16" d="M820.15,320.13c6.08,1.44,10.72,8.72,10.37,16.26s-5.57,12.48-11.64,11-10.72-8.72-10.37-16.26S814.07,318.69,820.15,320.13Z"/><path class="cls-25" d="M769.46,373.67c28.16,6.67,49.67,40.41,48,75.35s-25.78,57.86-53.94,51.18-49.68-40.42-48-75.36S741.3,367,769.46,373.67Z"/><path class="cls-26" d="M768.1,402.82c15.18,3.6,26.78,21.79,25.9,40.63S780.1,474.64,764.92,471,738.14,449.25,739,430.41,752.91,399.22,768.1,402.82Z"/><path class="cls-27" d="M834.43,441.47c1-7.43,6.63-10.54,12.56-6.93l180.3,103.93c5.92,3.6,9.91,12.55,8.9,20l-2,14.69c-1,7.42-6.63,10.52-12.55,6.92L841.39,476.12c-5.93-3.6-9.91-12.55-8.91-20Z"/><path class="cls-27" d="M827.26,495.47c.6-4.38,3.92-6.22,7.41-4.09l106.48,61.37c3.49,2.13,5.85,7.42,5.25,11.8l-1.15,8.67c-.59,4.38-3.91,6.21-7.41,4.09L831.37,515.94c-3.5-2.13-5.85-7.42-5.26-11.8Z"/><path class="cls-27" d="M706.92,509.24c.73-5.4,4.82-7.67,9.14-5l311.38,178.64c4.31,2.62,7.22,9.14,6.48,14.55l-1,7.08c-.74,5.4-4.83,7.67-9.15,5L712.43,530.87c-4.32-2.62-7.22-9.14-6.48-14.55Z"/><path class="cls-27" d="M700.41,561.64c.73-5.41,4.82-7.67,9.14-5l311.38,178.64c4.31,2.62,7.22,9.14,6.48,14.55l-1,7.08c-.74,5.4-4.83,7.66-9.15,5L705.92,583.27c-4.32-2.63-7.22-9.14-6.48-14.55Z"/><path class="cls-27" d="M693.59,611.55c.73-5.4,4.82-7.67,9.14-5l311.38,178.64c4.31,2.63,7.22,9.14,6.48,14.55l-1,7.08c-.74,5.41-4.83,7.67-9.15,5.05L699.1,633.18c-4.32-2.62-7.22-9.14-6.49-14.55Z"/><path class="cls-10" d="M1095.91,242.66c1-6.92-3.62-12.26-.61-16.85,3.24-4.95,14.29-8.5,19.06-10.22,6.78-2.45,14.75-1.65,22.88,3L1468.44,408c19.34,11.06,32.23,39.82,28.76,64.17L1460,732c-1.69,11.93-7,20.61-14.26,25-4.44,2.71-16.57,7.91-22.07,7.24-3.87-.47-.93-5.89-5-8.22L1087.5,566.68c-19.37-11.07-32.24-39.82-28.77-64.17Z"/><path class="cls-28" d="M1086,246.62c3.46-24.35,22-35.15,41.33-24.08l331.19,189.37c19.34,11.06,32.23,39.82,28.77,64.17L1450.1,735.93c-3.47,24.34-22,35.13-41.33,24.07l-331.2-189.36c-19.36-11.08-32.23-39.82-28.76-64.17Z"/><path class="cls-29" d="M1060.27,518.38c.3-2.11,1.9-3,3.58-2L1431.17,727a6.06,6.06,0,0,1,2.49,5.66l-1,6.41c-.3,2.11-1.91,3-3.58,2L1061.78,530.45a6.08,6.08,0,0,1-2.49-5.66Z"/><path class="cls-30" d="M1060.45,518.58c.29-2,1.83-2.91,3.45-1.94l148.16,84.93a5.87,5.87,0,0,1,2.4,5.46l-.94,6.18c-.29,2-1.84,2.91-3.45,1.94l-148.16-84.93a5.85,5.85,0,0,1-2.4-5.46Z"/><path class="cls-31" d="M1205.66,393.55c.82-5.79,5.22-8.36,9.83-5.73l102,58.32c4.6,2.64,7.67,9.48,6.85,15.27l-13.76,97c-.83,5.79-5.24,8.36-9.84,5.73l-102-58.32c-4.6-2.64-7.67-9.48-6.84-15.27Z"/><path class="cls-32" d="M1263.82,435.77c-17.65-10.1-34.5-.26-37.66,21.94s8.56,48.41,26.21,58.51,34.51.26,37.67-22S1281.46,445.86,1263.82,435.77Z"/><polygon class="cls-16" points="1247.49 446.55 1241.92 486.74 1275.97 487.66 1247.49 446.55"/><path class="cls-33" d="M1343.24,108.25c-13-7.18-26.7,2.51-26.56,21.26.06,9.71,4.18,19.69,10.67,26a25.47,25.47,0,0,0,5.25,3.93c12.94,7.17,26.62-2.51,26.53-21.18,0-9.72-4.13-19.76-10.59-26a25.7,25.7,0,0,0-5.3-4Zm-12.48,60a33.87,33.87,0,0,1-7-5.27c-8.76-8.41-14.24-21.86-14.37-34.93-.15-25.15,18.3-38.22,35.72-28.57a34.54,34.54,0,0,1,7.15,5.37c8.72,8.39,14.2,21.85,14.26,34.91.1,25.09-18.32,38.13-35.71,28.49Zm59.33-21.37c3,1.68,4.84,6.09,4,9.89l-3.17,14.74c-.81,3.75-3.92,5.44-7,3.76l-1.55-.86a4.34,4.34,0,0,0-6.13,1.69,44.88,44.88,0,0,1-2.82,4.18c-1.58,2.07-1.84,5.39-.63,8.35l.81,2c1.56,3.81.63,8.15-2.06,9.61L1360.93,206a4.39,4.39,0,0,1-4.32-.16,8.27,8.27,0,0,1-3.47-4.16l-.82-1.95a8.18,8.18,0,0,0-3.43-4.11,5.07,5.07,0,0,0-2.56-.66c-1.51,0-3,0-4.56-.19-2.44-.23-4.47,1.49-5.09,4.38l-.41,1.92c-.81,3.75-3.93,5.43-7,3.76l-11.89-6.6c-3-1.68-4.84-6.09-4-9.85l.41-1.92a10,10,0,0,0-2.32-8.48c-1.28-1.41-2.48-2.87-3.67-4.37a7.33,7.33,0,0,0-2.26-2,4.34,4.34,0,0,0-4.28-.16l-1.4.71a4.41,4.41,0,0,1-4.33-.15,8.29,8.29,0,0,1-3.46-4.16l-6.18-15.11c-1.55-3.8-.62-8.14,2.07-9.6l1.41-.76c2.09-1.13,3.16-4,2.71-7.18q-.42-3-.61-6.09a9.23,9.23,0,0,0-4.18-7.41l-1.55-.86c-3-1.68-4.84-6.09-4-9.85l3.17-14.74c.82-3.8,3.93-5.48,7-3.8l1.55.86a4.34,4.34,0,0,0,6.13-1.69,41.88,41.88,0,0,1,2.83-4.18c1.57-2,1.82-5.34.61-8.31l-.82-2c-1.54-3.85-.62-8.15,2.08-9.64l10.67-5.77a4.41,4.41,0,0,1,4.32.15,8.33,8.33,0,0,1,3.47,4.17l.81,2a8.13,8.13,0,0,0,3.43,4.11,4.88,4.88,0,0,0,2.57.66,38.6,38.6,0,0,1,4.56.15c2.43.28,4.46-1.45,5.08-4.33l.42-1.92c.81-3.8,3.93-5.49,7-3.8l11.9,6.59c3,1.69,4.84,6.1,4,9.89l-.41,1.92a9.93,9.93,0,0,0,2.3,8.43q1.92,2.11,3.69,4.42a7.36,7.36,0,0,0,2.27,2,4.32,4.32,0,0,0,4.27.16l1.41-.76a4.43,4.43,0,0,1,4.33.16,8.2,8.2,0,0,1,3.46,4.16l6.18,15.11c1.55,3.84.62,8.15-2.07,9.64l-1.41.76c-2.09,1.13-3.16,4-2.71,7.15q.42,3,.62,6.08c.19,3.15,1.84,6.12,4.17,7.41Z"/><path class="cls-34" d="M125.86,73.49c-1.34,9.13-8.48,13.26-16,9.08s-12.64-15.1-11.3-24.23,8.45-13,16.13-8.77,12.52,14.85,11.2,23.92Zm-41.44,81.1c1.34-9.12,8.46-13.08,16.15-8.82s12.53,14.85,11.19,24-8.48,13.25-16,9.07-12.63-15.1-11.3-24.23Zm-47.16-78c-1.33,9.07-8.59,12.95-16.14,8.77S8.6,70.46,9.93,61.39s8.52-13.23,16-9.07S38.6,67.41,37.26,76.54ZM116.37,38c-12.85-7.13-25.18-.48-27.46,15v1.16l-44.78,7C40.94,52.47,35,45,27.63,40.87c-12.84-7.12-25-.31-27.27,15.21S6.57,89.81,19.42,96.93c7.41,4.11,14.47,3.61,19.55-.56l36.12,52.07-.28.83c-2.27,15.52,6.4,33.82,19.25,40.94,12.7,7,25,.37,27.26-15.16,2.25-15.36-6.34-33.85-19-40.9C93.13,129.08,84.38,131,79.2,138L45,88.12a20.32,20.32,0,0,0,1.74-6.33A27.34,27.34,0,0,0,47,74.4l42.58-7.28C92.09,78.37,99,89,108.15,94c12.71,7,25,.31,27.28-15.23S129.07,45,116.37,38Z"/><polygon class="cls-35" points="47.85 1092.28 114.5 982.19 148.16 1104.43 182.36 1062.8 224.97 1193.87 47.85 1092.28"/><path class="cls-36" d="M169.08,990.1c9.16,2.27,17.35,13,18.29,23.9s-5.7,18-14.86,15.68-17.34-13-18.29-23.9S159.93,987.84,169.08,990.1Z"/></g></g></g></svg>