<svg width="905" height="1018" viewBox="0 0 905 1018" fill="none" xmlns="http://www.w3.org/2000/svg">
<path opacity="0.46" fill-rule="evenodd" clip-rule="evenodd" d="M540.024 809.427C226.275 702.359 0 398.466 0 40.2985C0 -407.217 353.247 -770 789 -770C1224.75 -770 1578 -407.217 1578 40.2985C1578 335.202 1424.6 593.31 1195.28 735.055V193.838H1060.92C1085.35 148.3 1099.25 95.9664 1099.25 40.2985C1099.25 -135.674 960.347 -278.327 789 -278.327C617.653 -278.327 478.749 -135.674 478.749 40.2985C478.749 163.596 546.942 270.537 646.707 323.511L679.68 173.326C681.932 163.07 695.246 160.835 701.14 169.722L1049.76 695.345C1053.66 701.221 1051.93 709.075 1046 712.464L515.434 1015.57C506.463 1020.7 495.481 1012.31 497.732 1002.06L540.024 809.427Z" fill="url(#paint0_linear)"/>
<path fill-rule="evenodd" clip-rule="evenodd" d="M560.474 810.108C275.804 708.53 70.5 420.221 70.5 80.4202C70.5 -344.147 391.008 -688.326 786.375 -688.326C1181.74 -688.326 1502.25 -344.147 1502.25 80.4202C1502.25 360.201 1363.07 605.074 1155 739.55V226.086H1033.09C1055.26 182.884 1067.87 133.234 1067.87 80.4203C1067.87 -86.5281 941.841 -221.866 786.375 -221.866C630.909 -221.866 504.878 -86.5281 504.878 80.4203C504.878 197.396 566.751 298.852 657.27 349.11L686.726 208.819C688.907 198.432 702.356 196.425 708.186 205.616L1022.73 701.503C1026.44 707.351 1024.84 714.96 1019.2 718.332L540.489 1004.29C531.616 1009.59 520.382 1001.05 522.563 990.665L560.474 810.108Z" fill="url(#paint1_linear)"/>
<defs>
<linearGradient id="paint0_linear" x1="295.494" y1="-493.422" x2="1338.38" y2="-383.751" gradientUnits="userSpaceOnUse">
<stop stop-color="#5088F5"/>
<stop offset="1" stop-color="#5BB4F5"/>
</linearGradient>
<linearGradient id="paint1_linear" x1="338.608" y1="-426.123" x2="1285.71" y2="-330.802" gradientUnits="userSpaceOnUse">
<stop stop-color="#5088F5"/>
<stop offset="1" stop-color="#5BB4F5"/>
</linearGradient>
</defs>
</svg>
