<svg width="1157" height="1354" viewBox="0 0 1157 1354" fill="none" xmlns="http://www.w3.org/2000/svg">
<path opacity="0.46" fill-rule="evenodd" clip-rule="evenodd" d="M540.024 1145.78C226.275 1038.89 0 735.505 0 377.938C0 -68.826 353.247 -431 789 -431C1224.75 -431 1578 -68.826 1578 377.938C1578 672.347 1424.6 930.022 1195.28 1071.53V531.22H1060.92C1085.35 485.758 1099.25 433.513 1099.25 377.938C1099.25 202.261 960.347 59.8473 789 59.8473C617.653 59.8473 478.749 202.261 478.749 377.938C478.749 501.029 546.942 607.79 646.707 660.676L679.677 510.757C681.931 500.507 695.24 498.263 701.137 507.139L1049.74 1031.86C1053.65 1037.74 1051.92 1045.6 1045.98 1048.99L515.429 1351.58C506.454 1356.69 495.481 1348.32 497.736 1338.07L540.024 1145.78Z" fill="url(#paint0_linear)"/>
<path fill-rule="evenodd" clip-rule="evenodd" d="M560.474 1146.46C275.804 1045.05 70.5 757.224 70.5 417.993C70.5 -5.86154 391.008 -349.463 786.375 -349.463C1181.74 -349.463 1502.25 -5.86154 1502.25 417.993C1502.25 697.304 1363.07 941.765 1155 1076.02V563.414H1033.09C1055.26 520.284 1067.87 470.717 1067.87 417.993C1067.87 251.325 941.841 116.213 786.375 116.213C630.909 116.213 504.878 251.325 504.878 417.993C504.878 534.772 566.751 636.058 657.27 686.231L686.723 546.192C688.907 535.81 702.35 533.794 708.183 542.974L1022.71 1038.01C1026.43 1043.86 1024.83 1051.47 1019.17 1054.85L540.484 1340.32C531.607 1345.61 520.382 1337.08 522.566 1326.69L560.474 1146.46Z" fill="url(#paint1_linear)"/>
<defs>
<linearGradient id="paint0_linear" x1="295.494" y1="-154.885" x2="1338.34" y2="-45.035" gradientUnits="userSpaceOnUse">
<stop stop-color="#5088F5"/>
<stop offset="1" stop-color="#5BB4F5"/>
</linearGradient>
<linearGradient id="paint1_linear" x1="338.608" y1="-87.6993" x2="1285.68" y2="7.7784" gradientUnits="userSpaceOnUse">
<stop stop-color="#5088F5"/>
<stop offset="1" stop-color="#5BB4F5"/>
</linearGradient>
</defs>
</svg>
