<svg width="3071" height="4087" viewBox="0 0 3071 4087" fill="none" xmlns="http://www.w3.org/2000/svg">
<path opacity="0.46" fill-rule="evenodd" clip-rule="evenodd" d="M0 1845.83C0 856.211 798.905 48.4858 1802.3 2.10318V1125.4C1434.11 1169.24 1148.94 1475.07 1148.94 1845.83C1148.94 2126.7 1312.59 2370.31 1552.01 2490.98L1639.34 2113.44C1641.68 2103.33 1654.83 2100.85 1660.8 2109.38L2528.84 3351.68C2532.96 3357.57 2531.08 3365.72 2524.81 3369.12L1203.72 4085.5C1194.65 4090.42 1183.96 4082.21 1186.3 4072.11L1295.99 3597.88C543.031 3353.98 0 2661.73 0 1845.83Z" fill="url(#paint0_linear)"/>
<path fill-rule="evenodd" clip-rule="evenodd" d="M169.191 1937.23C169.191 998.27 894.184 231.911 1804.7 188.034V1253.71C1470.52 1295.19 1211.64 1585.39 1211.64 1937.23C1211.64 2203.69 1360.13 2434.81 1577.36 2549.29L1656.13 2193.22C1658.39 2182.99 1671.69 2180.71 1677.59 2189.55L2463.39 3365.46C2467.32 3371.34 2465.58 3379.24 2459.6 3382.63L1263.67 4060.73C1254.69 4065.83 1243.75 4057.47 1246.01 4047.24L1345.07 3599.43C661.894 3368.04 169.191 2711.28 169.191 1937.23Z" fill="url(#paint1_linear)"/>
<defs>
<linearGradient id="paint0_linear" x1="473.957" y1="634.286" x2="2156.03" y2="758.412" gradientUnits="userSpaceOnUse">
<stop stop-color="#5088F5"/>
<stop offset="1" stop-color="#5BB4F5"/>
</linearGradient>
<linearGradient id="paint1_linear" x1="599.195" y1="787.619" x2="2125.98" y2="895.394" gradientUnits="userSpaceOnUse">
<stop stop-color="#5088F5"/>
<stop offset="1" stop-color="#5BB4F5"/>
</linearGradient>
</defs>
</svg>
