<svg width="1142" height="1107" viewBox="0 0 1142 1107" fill="none" xmlns="http://www.w3.org/2000/svg">
<path opacity="0.46" fill-rule="evenodd" clip-rule="evenodd" d="M540.024 898.776C226.275 791.887 0 488.505 0 130.938C0 -315.826 353.247 -678 789 -678C1224.75 -678 1578 -315.826 1578 130.938C1578 425.466 1424.48 683.231 1195 824.701V-18H1063.21C1011.11 -118.624 907.86 -187.153 789 -187.153C617.653 -187.153 478.749 -44.7385 478.749 130.938C478.749 254.029 546.942 360.79 646.707 413.676L679.677 263.757C681.931 253.507 695.24 251.263 701.137 260.139L1049.74 784.86C1053.65 790.737 1051.92 798.6 1045.98 801.989L515.429 1104.58C506.454 1109.69 495.481 1101.32 497.736 1091.07L540.024 898.776Z" fill="url(#paint0_linear)"/>
<path fill-rule="evenodd" clip-rule="evenodd" d="M560.474 899.455C275.804 798.048 70.5 510.224 70.5 170.993C70.5 -252.862 391.008 -596.463 786.375 -596.463C1181.74 -596.463 1502.25 -252.862 1502.25 170.993C1502.25 450.304 1363.07 694.765 1155 829.016V-58H969.725C920.468 -103.369 856.408 -130.787 786.375 -130.787C630.909 -130.787 504.878 4.32465 504.878 170.993C504.878 287.772 566.751 389.058 657.27 439.231L686.723 299.192C688.907 288.81 702.35 286.794 708.183 295.974L1022.71 791.008C1026.43 796.857 1024.83 804.475 1019.17 807.848L540.484 1093.32C531.607 1098.61 520.382 1090.08 522.566 1079.69L560.474 899.455Z" fill="url(#paint1_linear)"/>
<defs>
<linearGradient id="paint0_linear" x1="295.494" y1="-401.885" x2="1338.34" y2="-292.035" gradientUnits="userSpaceOnUse">
<stop stop-color="#5088F5"/>
<stop offset="1" stop-color="#5BB4F5"/>
</linearGradient>
<linearGradient id="paint1_linear" x1="338.608" y1="-334.699" x2="1285.68" y2="-239.222" gradientUnits="userSpaceOnUse">
<stop stop-color="#5088F5"/>
<stop offset="1" stop-color="#5BB4F5"/>
</linearGradient>
</defs>
</svg>
