<svg width="41" height="45" viewBox="0 0 41 45" fill="none" xmlns="http://www.w3.org/2000/svg">
<path d="M36.6071 2.79541H4.39286C1.96672 2.79541 0 4.67273 0 6.98859V37.7386C0 40.0545 1.96672 41.9318 4.39286 41.9318H36.6071C39.0333 41.9318 41 40.0545 41 37.7386V6.98859C41 4.67273 39.0333 2.79541 36.6071 2.79541ZM16.3009 22.8968C8.00132 17.1472 8.08588 17.1327 5.85714 15.4769V13.2784C5.85714 12.1204 6.8405 11.1818 8.05357 11.1818H32.9464C34.1595 11.1818 35.1429 12.1204 35.1429 13.2784V15.4769C32.9125 17.134 32.9982 17.1475 24.6991 22.8969C23.7382 23.5656 21.8262 25.1787 20.5 25.159C19.1727 25.178 17.2633 23.5667 16.3009 22.8968ZM35.1429 19.0243V31.4488C35.1429 32.6068 34.1595 33.5454 32.9464 33.5454H8.05357C6.8405 33.5454 5.85714 32.6068 5.85714 31.4488V19.0243C7.13455 19.9673 8.90734 21.2289 14.5791 25.1581C15.8751 26.0615 18.0545 27.9662 20.4997 27.9544C22.9604 27.9661 25.1705 26.029 26.4228 25.1568C32.093 21.2287 33.8655 19.9672 35.1429 19.0243Z" fill="white"/>
</svg>
