<svg width="18066" height="5038" viewBox="0 0 18066 5038" fill="none" xmlns="http://www.w3.org/2000/svg">
<path opacity="0.5" fill-rule="evenodd" clip-rule="evenodd" d="M18610 40.4867C17958.4 -19.5611 17182.8 -18.5422 16274 82.5614C14586.5 270.302 13719.2 466.259 13009.4 626.626C12110.7 829.689 11464.5 975.688 9725.44 975.688C8031.28 975.688 7025.38 763.17 6076.4 562.679C5281.91 394.828 4527.33 235.407 3442.19 216.179C1537.15 182.423 327.522 708.453 -39.1633 975.688L-14.8773 989.752H-26.2215V3964.5H1133.64L-78 4055.51V4997.51C573.635 5057.56 1349.23 5056.54 2258 4955.44C3945.51 4767.7 4812.79 4571.74 5522.56 4411.38L5522.56 4411.37C6421.3 4208.31 7067.48 4062.31 8806.56 4062.31C10500.7 4062.31 11506.6 4274.83 12455.6 4475.32C13250.1 4643.17 14004.7 4802.59 15089.8 4821.82C16994.8 4855.58 18204.5 4329.55 18571.2 4062.31L18402.3 3964.5H18610V989.752H18513.4L18610 982.493V40.4867Z" fill="url(#paint0_linear)"/>
<path fill-rule="evenodd" clip-rule="evenodd" d="M18610 378.69C17958.4 324.6 17182.8 325.517 16274 416.59C14586.5 585.705 13719.2 762.221 13009.4 906.677C12110.7 1089.59 11464.5 1221.11 9725.44 1221.11C8031.28 1221.11 7025.38 1029.67 6076.4 849.075C5281.91 697.877 4527.33 554.272 3442.19 536.952C1537.15 506.545 327.522 980.387 -39.1633 1221.11L-15.0557 1233.68H-27.2065V3835.99H385.098L-78.0162 3871.14V4823.14C573.619 4883.83 1349.21 4882.8 2257.98 4780.62C3945.49 4590.89 4812.77 4392.86 5522.54 4230.79L5522.55 4230.79C6421.28 4025.57 7067.46 3878.02 8806.54 3878.02C10500.7 3878.02 11506.6 4092.79 12455.6 4295.41C13250.1 4465.04 14004.7 4626.16 15089.8 4645.59C16994.8 4679.7 18204.5 4148.09 18571.1 3878.02L18499.3 3835.99H18610V1233.68H18514.7L18610 1227.24V378.69Z" fill="url(#paint1_linear)"/>
<defs>
<linearGradient id="paint0_linear" x1="3421.49" y1="779.691" x2="13869.7" y2="5395.46" gradientUnits="userSpaceOnUse">
<stop stop-color="#5088F5"/>
<stop offset="1" stop-color="#5BB4F5"/>
</linearGradient>
<linearGradient id="paint1_linear" x1="3421.48" y1="1042.03" x2="13473.6" y2="5989.71" gradientUnits="userSpaceOnUse">
<stop stop-color="#5088F5"/>
<stop offset="1" stop-color="#5BB4F5"/>
</linearGradient>
</defs>
</svg>
