<svg width="1440" height="785" viewBox="0 0 1440 785" fill="none" xmlns="http://www.w3.org/2000/svg">
<path opacity="0.5" fill-rule="evenodd" clip-rule="evenodd" d="M1482 6.30101C1429.21 -3.04431 1366.37 -2.88575 1292.75 12.8491C1156.04 42.0675 1085.77 72.5645 1028.27 97.5227C955.462 129.126 903.112 151.848 762.221 151.848C624.969 151.848 543.476 118.773 466.595 87.5705C402.23 61.4476 341.098 36.6367 253.186 33.6443C98.8499 28.3908 0.852257 110.258 -28.8546 151.848L-26.8869 154.037H-27.8061V617H66.1595L-32.0005 631.164V777.77C20.7915 787.115 83.6256 786.957 157.249 771.222C293.963 742.003 364.225 711.506 421.727 686.548C494.537 654.945 546.887 632.223 687.778 632.223C825.03 632.223 906.523 665.298 983.404 696.5C1047.77 722.623 1108.9 747.434 1196.81 750.427C1351.15 755.68 1449.15 673.813 1478.85 632.223L1465.17 617H1482V154.037H1474.17L1482 152.907V6.30101Z" fill="url(#paint0_linear)"/>
<path fill-rule="evenodd" clip-rule="evenodd" d="M1482 58.9359C1429.21 50.5177 1366.37 50.6606 1292.75 64.8344C1156.04 91.1539 1085.77 118.625 1028.27 141.107C955.462 169.575 903.112 190.043 762.221 190.043C624.969 190.043 543.476 160.25 466.595 132.143C402.23 108.611 341.098 86.262 253.186 83.5664C98.8499 78.8341 0.852257 152.579 -28.8546 190.043L-26.9013 192H-27.8859V597H5.51556L-32.0005 602.471V750.632C20.7915 760.077 83.6256 759.916 157.249 744.015C293.963 714.486 364.225 683.666 421.727 658.443C494.537 626.504 546.887 603.541 687.778 603.541C825.03 603.541 906.523 636.967 983.404 668.5C1047.77 694.9 1108.9 719.975 1196.81 722.999C1351.15 728.308 1449.15 645.573 1478.85 603.541L1473.04 597H1482V192H1474.28L1482 190.997V58.9359Z" fill="url(#paint1_linear)"/>
<defs>
<linearGradient id="paint0_linear" x1="251.509" y1="121.344" x2="1212.35" y2="342.308" gradientUnits="userSpaceOnUse">
<stop stop-color="#5088F5"/>
<stop offset="1" stop-color="#5BB4F5"/>
</linearGradient>
<linearGradient id="paint1_linear" x1="251.509" y1="162.172" x2="1200.84" y2="405.41" gradientUnits="userSpaceOnUse">
<stop stop-color="#5088F5"/>
<stop offset="1" stop-color="#5BB4F5"/>
</linearGradient>
</defs>
</svg>
