<svg width="43" height="47" viewBox="0 0 43 47" fill="none" xmlns="http://www.w3.org/2000/svg">
<g clip-path="url(#clip0)">
<path d="M21.5095 12.9186C15.405 12.9186 10.4811 17.6186 10.4811 23.4456C10.4811 29.2726 15.405 33.9727 21.5095 33.9727C27.6139 33.9727 32.5378 29.2726 32.5378 23.4456C32.5378 17.6186 27.6139 12.9186 21.5095 12.9186ZM21.5095 30.2896C17.5646 30.2896 14.3396 27.2203 14.3396 23.4456C14.3396 19.6709 17.555 16.6017 21.5095 16.6017C25.4639 16.6017 28.6793 19.6709 28.6793 23.4456C28.6793 27.2203 25.4543 30.2896 21.5095 30.2896ZM35.5613 12.4879C35.5613 13.8531 34.4095 14.9433 32.9889 14.9433C31.5588 14.9433 30.4166 13.8439 30.4166 12.4879C30.4166 11.132 31.5684 10.0325 32.9889 10.0325C34.4095 10.0325 35.5613 11.132 35.5613 12.4879ZM42.8655 14.98C42.7023 11.6909 41.9153 8.77736 39.391 6.37694C36.8762 3.97651 33.824 3.22523 30.3782 3.06032C26.8269 2.86792 16.1825 2.86792 12.6311 3.06032C9.19497 3.21607 6.14273 3.96735 3.6184 6.36777C1.09407 8.7682 0.316616 11.6817 0.143848 14.9708C-0.0577148 18.3607 -0.0577148 28.5213 0.143848 31.9112C0.307017 35.2004 1.09407 38.1139 3.6184 40.5143C6.14273 42.9147 9.18537 43.666 12.6311 43.8309C16.1825 44.0233 26.8269 44.0233 30.3782 43.8309C33.824 43.6752 36.8762 42.9239 39.391 40.5143C41.9057 38.1139 42.6927 35.2004 42.8655 31.9112C43.0671 28.5213 43.0671 18.3699 42.8655 14.98ZM38.2776 35.5485C37.5289 37.3443 36.0796 38.7277 34.1887 39.4515C31.3572 40.5235 24.6385 40.2761 21.5095 40.2761C18.3805 40.2761 11.6521 40.5143 8.83023 39.4515C6.94898 38.7369 5.49965 37.3534 4.74139 35.5485C3.6184 32.8458 3.87755 26.4324 3.87755 23.4456C3.87755 20.4588 3.628 14.0363 4.74139 11.3427C5.49005 9.54696 6.93938 8.16351 8.83023 7.43972C11.6617 6.36777 18.3805 6.61515 21.5095 6.61515C24.6385 6.61515 31.3668 6.37694 34.1887 7.43972C36.07 8.15435 37.5193 9.5378 38.2776 11.3427C39.4006 14.0455 39.1414 20.4588 39.1414 23.4456C39.1414 26.4324 39.4006 32.8549 38.2776 35.5485Z" fill="url(#paint0_linear)"/>
</g>
<defs>
<linearGradient id="paint0_linear" x1="8.04929" y1="9.27042" x2="36.3571" y2="12.8031" gradientUnits="userSpaceOnUse">
<stop stop-color="#5088F5"/>
<stop offset="1" stop-color="#5BB4F5"/>
</linearGradient>
<clipPath id="clip0">
<rect width="43" height="46.9091" fill="white"/>
</clipPath>
</defs>
</svg>
