<svg xmlns="http://www.w3.org/2000/svg" viewBox="0 0 556.83 169.13"><defs><style>.cls-1{fill:#1685bc;}.cls-2{fill:#1a213a;}</style></defs><g id="Layer_2" data-name="Layer 2"><g id="Layer_1-2" data-name="Layer 1"><path class="cls-1" d="M140.17,168.91a.93.93,0,0,1-1-1V151.06a.93.93,0,0,1,1-1h5a7.56,7.56,0,0,1,5.84,2.22,8.68,8.68,0,0,1,2.25,5.78c0,1.17,0,2.14,0,3a8.63,8.63,0,0,1-2.3,5.71,7.64,7.64,0,0,1-5.76,2.16Zm12.12-11.09c-.25-4.22-2.63-6.76-7.17-6.76H140.2v16.85h4.92c4.57,0,6.95-2.6,7.17-6.84.05-1.08.05-2.17,0-3.25"/><path class="cls-1" d="M164.09,150.44a.48.48,0,0,1,.48-.52.46.46,0,0,1,.52.52v18.07c0,.35-.17.51-.52.51s-.48-.16-.48-.51Z"/><path class="cls-1" d="M190.62,162.58a6.35,6.35,0,0,1-1.94,4.57,6.72,6.72,0,0,1-5.09,2A7.09,7.09,0,0,1,178.4,167a8,8,0,0,1-2.33-5.36,29.51,29.51,0,0,1,0-4.41,8.16,8.16,0,0,1,2.3-5.3,6.89,6.89,0,0,1,5.11-2.13,6.74,6.74,0,0,1,6.71,4.16,1.37,1.37,0,0,1,.14.49.49.49,0,0,1-.49.48.52.52,0,0,1-.51-.4,6.05,6.05,0,0,0-5.85-3.76,5.89,5.89,0,0,0-4.35,1.81,7,7,0,0,0-2,4.46,28.85,28.85,0,0,0,0,4.74,7,7,0,0,0,2,4.51,6,6,0,0,0,4.41,1.82,6.38,6.38,0,0,0,4.35-1.49,4.89,4.89,0,0,0,1.76-3.9v-2.4h-5a.52.52,0,1,1,0-1h5a1,1,0,0,1,1.05,1.05Z"/><path class="cls-1" d="M201.29,150.44a.48.48,0,0,1,.48-.52.45.45,0,0,1,.52.52v18.07c0,.35-.16.51-.52.51s-.48-.16-.48-.51Z"/><path class="cls-1" d="M218.33,151.06h-6.25a.53.53,0,0,1-.54-.51c0-.33.19-.49.54-.49h13.45c.35,0,.54.16.54.49a.56.56,0,0,1-.54.51h-6.2v17.42a.51.51,0,0,1-.51.54c-.33,0-.49-.19-.49-.54Z"/><path class="cls-1" d="M247.33,168.18a.55.55,0,0,1-.48.73.45.45,0,0,1-.46-.35l-2.47-6.76h-9.41l-2.46,6.76a.47.47,0,0,1-.49.32.53.53,0,0,1-.46-.7l6.12-16.72c.4-1.1,1.05-1.67,2-1.67s1.59.57,2,1.67Zm-12.44-7.38h8.66l-3.38-9.28c-.2-.52-.49-.76-.95-.76a1,1,0,0,0-.95.76Z"/><path class="cls-1" d="M256.73,150.44a.48.48,0,0,1,.48-.52.46.46,0,0,1,.52.52v17.47h9.95a.5.5,0,1,1,0,1h-9.95a.94.94,0,0,1-1-1Z"/><path class="cls-1" d="M303.42,168.18a.55.55,0,0,1-.49.73.46.46,0,0,1-.46-.35L300,161.8H290.6l-2.46,6.76a.47.47,0,0,1-.49.32.52.52,0,0,1-.46-.7l6.11-16.72c.41-1.1,1.06-1.67,2-1.67s1.59.57,2,1.67ZM291,160.8h8.65l-3.38-9.28a1,1,0,0,0-.94-.76,1,1,0,0,0-.95.76Z"/><path class="cls-1" d="M326.28,162.58a6.32,6.32,0,0,1-1.95,4.57,6.7,6.7,0,0,1-5.08,2,7.06,7.06,0,0,1-5.19-2.11,8,8,0,0,1-2.33-5.36,29.51,29.51,0,0,1,0-4.41A8.16,8.16,0,0,1,314,152a6.89,6.89,0,0,1,5.11-2.13,6.75,6.75,0,0,1,6.71,4.16,1.33,1.33,0,0,1,.13.49.48.48,0,0,1-.48.48.53.53,0,0,1-.52-.4,6,6,0,0,0-5.84-3.76,5.88,5.88,0,0,0-4.35,1.81,7,7,0,0,0-2,4.46,26.8,26.8,0,0,0,0,4.74,6.92,6.92,0,0,0,2,4.51,6,6,0,0,0,4.41,1.82,6.38,6.38,0,0,0,4.35-1.49,4.89,4.89,0,0,0,1.76-3.9v-2.4h-5a.52.52,0,1,1,0-1h5a1,1,0,0,1,1,1.05Z"/><path class="cls-1" d="M347.87,150.06c.35,0,.52.16.52.51a.51.51,0,0,1-.52.49H338v7.84h9.71a.52.52,0,0,1,.51.49.49.49,0,0,1-.51.51H338v8h10a.5.5,0,1,1,0,1H338a.87.87,0,0,1-1-1V151.06a.93.93,0,0,1,1-1Z"/><path class="cls-1" d="M360.24,151h-.05v17.47c0,.35-.16.51-.52.51a.5.5,0,0,1-.48-.51V150.92a.92.92,0,0,1,.94-1,1.17,1.17,0,0,1,1,.62l11.45,17.39h.05V150.44a.48.48,0,0,1,.49-.52c.35,0,.51.17.51.52v17.5a.93.93,0,0,1-.95,1,1.18,1.18,0,0,1-1-.62Z"/><path class="cls-1" d="M395.33,167.07a5.89,5.89,0,0,0,2.22-2.84.53.53,0,0,1,.51-.4.48.48,0,0,1,.49.48,1.19,1.19,0,0,1-.14.49,7.44,7.44,0,0,1-2.65,3.14,7.23,7.23,0,0,1-9.06-.9,7.85,7.85,0,0,1-2.27-5.22c-.05-.73-.08-1.46-.08-2.19s0-1.67.08-2.57a7.79,7.79,0,0,1,2.27-5.14,7,7,0,0,1,5.14-2.1,6.73,6.73,0,0,1,3.92,1.21,7.3,7.3,0,0,1,2.65,3.11,1.19,1.19,0,0,1,.14.49.48.48,0,0,1-.49.49.54.54,0,0,1-.51-.41,5.82,5.82,0,0,0-2.22-2.81,6.17,6.17,0,0,0-7.87.67,6.82,6.82,0,0,0-2,4.49,27,27,0,0,0,0,4.76,7,7,0,0,0,2,4.55,6.28,6.28,0,0,0,7.9.7"/><path class="cls-1" d="M422.22,150.38a.69.69,0,0,1-.13.35l-6.95,8.61a2,2,0,0,0-.46,1.21v7.95a.5.5,0,0,1-.52.52.51.51,0,0,1-.48-.52v-7.95a1.85,1.85,0,0,0-.52-1.21l-6.92-8.63a.48.48,0,0,1,.38-.79.47.47,0,0,1,.38.17l7.16,8.92,7.17-8.92a.4.4,0,0,1,.38-.19.5.5,0,0,1,.51.48"/><path class="cls-1" d="M170.59,96.59c0,5.28-2.93,8.91-8.68,8.91l-29.42.12v.7c0,5.51,4.92,8.56,11.48,8.56A28.19,28.19,0,0,0,155.58,112c3.4-1.52,6.22-1.41,8.68.35a8.3,8.3,0,0,1,3.75,7c0,3.28-1.88,6-5.63,8.2-4.57,2.7-11,4.11-19.11,4.11s-14.65-2.35-20.05-6.92a26.6,26.6,0,0,1-9-17.82,88.77,88.77,0,0,1,0-15.83c.7-7.62,3.63-13.83,8.79-18.4s11.84-6.92,19.69-6.92c8.33,0,15,2.58,20.17,7.62s7.74,12,7.74,20.52Zm-18.53-3.51c.82,0,1.18-.47,1.18-1.41.11-6.1-3.76-10.32-10.2-10.32-7,0-10.55,4.57-10.55,11.73Z"/><path class="cls-1" d="M214.34,98.35c1.3-4.86,3.67-13,7.23-24.65a10.9,10.9,0,0,1,10.07-7.94,10,10,0,0,1,8.65,4.5q3.19,4.45,1.07,10.31l-13.87,37c-3.43,9.12-9.12,13.74-16.82,13.74-7.47,0-13.4-4.86-16.36-13.51L180.56,80.46a10.66,10.66,0,0,1,.95-10.2,10.34,10.34,0,0,1,8.77-4.5,10.77,10.77,0,0,1,10.07,7.82c5.57,18.73,8.78,31.29,9.72,37.69,0,.94,1.66.94,1.66,0a90.41,90.41,0,0,1,2.61-12.92"/><path class="cls-1" d="M301.25,72.21a23.91,23.91,0,0,1,9.15,17.35,84.34,84.34,0,0,1,0,17.11,25.31,25.31,0,0,1-9.15,17.82c-5.39,4.58-12.07,6.92-20,6.92a29.88,29.88,0,0,1-20-7A25,25,0,0,1,252,106.67a82.92,82.92,0,0,1,0-17.11,23.86,23.86,0,0,1,9.14-17.35c5.51-4.57,12.19-6.8,20-6.8s14.65,2.23,20,6.8M271.13,92.84a51.65,51.65,0,0,0,0,10.55c.58,5.75,4.33,9.38,10.08,9.38,6,0,9.84-3.63,10-9.38.12-3.4.12-6.91,0-10.55-.35-5.51-4-9-10-9-5.75,0-9.5,3.52-10.08,9"/><path class="cls-1" d="M351.93,91.55c12.78,2.93,18.64,8.91,18.64,19.58a17.8,17.8,0,0,1-7.5,15c-4.92,3.75-11,5.62-18.17,5.62-9.73,0-17.47-2.22-23.21-6.8a9,9,0,0,1-1.64-11.72c2.81-3.87,7.5-4.57,12.31-1.76a23.44,23.44,0,0,0,12.77,3.64c4.58,0,6.8-1.29,6.8-3.76,0-1.87-1.76-3.16-5.39-3.86-3.4-.71-6.33-1.41-8.79-2-10.2-2.7-17.47-8.79-17.47-19.11a17.66,17.66,0,0,1,7.38-15c4.93-3.75,11-5.63,18.41-5.63S361.2,68,365.53,71.62c3.64,3.28,3.76,9.15,1.06,12.08-2.7,3.28-7.74,3.63-12.43,1.29a19.91,19.91,0,0,0-9.26-2.23c-4.22,0-6.33,1.17-6.33,3.4,0,1.64,2,2.93,5.86,3.75Z"/><path class="cls-1" d="M427.22,72.56a23.91,23.91,0,0,1,9.15,17.35,84.44,84.44,0,0,1,0,17.12,25.35,25.35,0,0,1-9.15,17.82c-5.39,4.57-12.07,6.91-20,6.91a29.88,29.88,0,0,1-20.05-7A25,25,0,0,1,378,107a83,83,0,0,1,0-17.12,23.86,23.86,0,0,1,9.14-17.35c5.51-4.57,12.19-6.8,20.05-6.8s14.65,2.23,20,6.8M397.1,93.19a51.65,51.65,0,0,0,0,10.55c.58,5.75,4.33,9.38,10.08,9.38,6,0,9.84-3.63,10-9.38.12-3.4.12-6.91,0-10.55-.35-5.51-4-9-10-9-5.75,0-9.5,3.51-10.08,9"/><path class="cls-1" d="M458,66.3V62.74c0-16.63,9.4-25.27,24.12-25.27A48.46,48.46,0,0,1,496,39.25c5.46,1.65,8.12,5.08,8.12,10s-3.68,8.89-9.65,8.89a23.2,23.2,0,0,1-4.57-.76,18.34,18.34,0,0,0-5.21-.89c-3.68,0-5.58,2.28-5.58,6.73v3h12.82a9.21,9.21,0,0,1,9.53,9.26c0,5.08-4.45,9-9.53,9H479.06v35.55c0,6.22-4.45,11.05-10.54,11.05S458,126.35,458,120.13V84.58H455.7c-5.46,0-9.53-3.94-9.53-9,0-5.46,4.07-9.26,9.53-9.26Z"/><path class="cls-1" d="M535.1,132c-16,0-24.33-10.8-24.33-26.7V58.38c0-6,4.35-10.68,10.18-10.68a10.6,10.6,0,0,1,10.3,10.68V66h14.16A9.3,9.3,0,0,1,555,75.38c0,5-4.47,9.07-9.56,9.07H531.25v20.36c0,5.58,2.36,8.32,7.21,8.32a30.47,30.47,0,0,0,6.45-1.12c7.08-1.62,11.92,2.61,11.92,8.56a8.81,8.81,0,0,1-5.34,8.57C547.64,131,542.18,132,535.1,132"/><path class="cls-1" d="M103.49,74.16A47.72,47.72,0,0,0,63.43,36.65a48.94,48.94,0,0,0-6.56-.46H53.75a10.14,10.14,0,0,0-10.23,9.48,10,10,0,0,0,9.95,10.44h4a27.61,27.61,0,0,1,28,27,28.59,28.59,0,0,1-28.55,29.25H19.28v-21c-.5-.33-1-.67-1.47-1A54.54,54.54,0,0,1,.22,69.47v61.94H56.15A48.37,48.37,0,0,0,102.86,96c.24-.87.44-1.76.63-2.66a46.84,46.84,0,0,0,0-19.22"/><path class="cls-2" d="M51,75.3H47.1a27.61,27.61,0,0,1-28-27A28.58,28.58,0,0,1,47.61,19.05H64.8a9.53,9.53,0,0,0,0-19H48.33A48.37,48.37,0,0,0,1.62,35.36Q1.27,36.68,1,38a46.74,46.74,0,0,0-1,8.84A47.65,47.65,0,0,0,41.06,94.75a47.08,47.08,0,0,0,6.55.47h3.12A10.14,10.14,0,0,0,61,85.74,10,10,0,0,0,51,75.3"/><path class="cls-2" d="M59.35,95.89,36.41,108a7.77,7.77,0,1,1-7.24-13.74L52.11,82.15a7.77,7.77,0,0,1,7.24,13.74"/><path class="cls-2" d="M48.91,92.74,36.82,69.8a7.77,7.77,0,0,1,13.74-7.24L62.65,85.5a7.77,7.77,0,0,1-13.74,7.24"/></g></g></svg>