<svg xmlns="http://www.w3.org/2000/svg" viewBox="0 0 480.41 113.88"><defs><style>.cls-1{fill:#fff;}.cls-2{fill:#1985bd;}</style></defs><g id="Layer_2" data-name="Layer 2"><g id="Layer_1-2" data-name="Layer 1"><path class="cls-1" d="M147.17,83.34c0,4.55-2.52,7.68-7.48,7.68l-25.39.1v.61c0,4.75,4.25,7.38,9.91,7.38a24.41,24.41,0,0,0,10-2.52c2.93-1.32,5.36-1.22,7.48.3A7.14,7.14,0,0,1,145,103c0,2.83-1.62,5.16-4.86,7.08-3.94,2.32-9.5,3.54-16.48,3.54s-12.65-2-17.3-6a23,23,0,0,1-7.79-15.37,77.66,77.66,0,0,1,0-13.66c.61-6.57,3.14-11.93,7.59-15.88a25.09,25.09,0,0,1,17-6c7.18,0,13,2.23,17.4,6.58s6.67,10.32,6.67,17.7Zm-16-3c.71,0,1-.4,1-1.21.1-5.26-3.24-8.9-8.8-8.9-6.07,0-9.11,3.94-9.11,10.11Z"/><path class="cls-1" d="M184.92,84.85c1.13-4.19,3.17-11.24,6.24-21.26a9.39,9.39,0,0,1,8.69-6.85,8.59,8.59,0,0,1,7.46,3.88q2.76,3.84.92,8.89l-12,31.9c-3,7.88-7.87,11.86-14.52,11.86-6.44,0-11.55-4.19-14.11-11.65L155.78,69.41a9.15,9.15,0,0,1,.82-8.79,8.9,8.9,0,0,1,7.57-3.88,9.3,9.3,0,0,1,8.69,6.74c4.8,16.16,7.56,27,8.38,32.52,0,.81,1.43.81,1.43,0a77.5,77.5,0,0,1,2.25-11.15"/><path class="cls-1" d="M259.91,62.3a20.64,20.64,0,0,1,7.89,15,72.8,72.8,0,0,1,0,14.76,21.9,21.9,0,0,1-7.89,15.38,27.85,27.85,0,0,1-34.59-.1A21.61,21.61,0,0,1,217.43,92a71.38,71.38,0,0,1,0-14.76,20.57,20.57,0,0,1,7.89-15,26.12,26.12,0,0,1,17.29-5.87c6.88,0,12.65,1.92,17.3,5.87m-26,17.8a46.11,46.11,0,0,0,0,9.1c.51,5,3.75,8.09,8.7,8.09,5.16,0,8.5-3.13,8.6-8.09.1-2.93.1-6,0-9.1-.3-4.75-3.44-7.79-8.6-7.79-5,0-8.19,3-8.7,7.79"/><path class="cls-1" d="M303.63,79c11,2.52,16.08,7.68,16.08,16.89a15.34,15.34,0,0,1-6.47,13,25.22,25.22,0,0,1-15.67,4.85c-8.4,0-15.08-1.92-20-5.87a7.79,7.79,0,0,1-1.42-10.11c2.43-3.34,6.47-4,10.62-1.52a20.2,20.2,0,0,0,11,3.14c3.94,0,5.86-1.12,5.86-3.24,0-1.62-1.52-2.73-4.65-3.34-2.93-.6-5.46-1.21-7.59-1.72-8.8-2.32-15.07-7.58-15.07-16.48a15.28,15.28,0,0,1,6.37-13c4.25-3.24,9.51-4.85,15.88-4.85s13.05,1.92,16.79,5c3.14,2.83,3.24,7.89.92,10.42C314,75,309.6,75.34,305.55,73.32a17.25,17.25,0,0,0-8-1.92c-3.65,0-5.47,1-5.47,2.93,0,1.42,1.72,2.53,5.06,3.24Z"/><path class="cls-1" d="M368.59,62.6a20.64,20.64,0,0,1,7.89,15,72.9,72.9,0,0,1,0,14.77,21.86,21.86,0,0,1-7.89,15.37c-4.65,4-10.42,6-17.3,6A25.76,25.76,0,0,1,334,107.61a21.59,21.59,0,0,1-7.89-15.27,71.48,71.48,0,0,1,0-14.77,20.57,20.57,0,0,1,7.89-15,26.18,26.18,0,0,1,17.29-5.87c6.88,0,12.65,1.93,17.3,5.87m-26,17.8a44.72,44.72,0,0,0,0,9.11c.5,4.95,3.74,8.09,8.69,8.09,5.16,0,8.5-3.14,8.6-8.09.1-2.94.1-6,0-9.11-.3-4.75-3.44-7.79-8.6-7.79-5,0-8.19,3-8.69,7.79"/><path class="cls-1" d="M395.13,57.2V54.13c0-14.35,8.1-21.8,20.81-21.8a41.86,41.86,0,0,1,11.94,1.53c4.71,1.43,7,4.39,7,8.66s-3.18,7.67-8.33,7.67a20.15,20.15,0,0,1-3.94-.66,15.91,15.91,0,0,0-4.49-.77c-3.18,0-4.82,2-4.82,5.81V57.2h11.06a8,8,0,0,1,8.22,8A8,8,0,0,1,424.37,73H413.31v30.67c0,5.37-3.83,9.53-9.09,9.53s-9.09-4.16-9.09-9.53V73h-2c-4.71,0-8.21-3.39-8.21-7.78,0-4.71,3.5-8,8.21-8Z"/><path class="cls-1" d="M461.66,113.88c-13.81,0-21-9.32-21-23V50.36c0-5.14,3.75-9.21,8.78-9.21a9.15,9.15,0,0,1,8.89,9.21V56.9h12.21A8,8,0,0,1,478.8,65c0,4.28-3.85,7.82-8.25,7.82H458.34V90.42c0,4.82,2,7.18,6.22,7.18a26.22,26.22,0,0,0,5.57-1c6.1-1.4,10.28,2.25,10.28,7.39a7.6,7.6,0,0,1-4.61,7.39c-3.32,1.6-8,2.46-14.14,2.46"/><path class="cls-1" d="M89.28,64A41.15,41.15,0,0,0,54.72,31.62a42.1,42.1,0,0,0-5.65-.4h-2.7a8.75,8.75,0,0,0-8.82,8.18,8.6,8.6,0,0,0,8.58,9h3.45a23.71,23.71,0,0,1,23.27,17.5,24.63,24.63,0,0,1-23.78,31H16.63V78.83c-.43-.29-.85-.57-1.26-.87a47,47,0,0,1-15.18-18v53.43H48.44a41.73,41.73,0,0,0,40.3-30.51c.21-.76.38-1.52.54-2.29a40,40,0,0,0,.86-7.63,41.34,41.34,0,0,0-.86-9"/><path class="cls-2" d="M44,65H40.64A23.81,23.81,0,0,1,17.29,47.46a24.62,24.62,0,0,1,23.78-31H55.9A8.22,8.22,0,1,0,55.9,0H41.7A41.73,41.73,0,0,0,1.4,30.51c-.2.76-.38,1.52-.54,2.3A39.89,39.89,0,0,0,0,40.44,41.15,41.15,0,0,0,35.42,81.75a40.62,40.62,0,0,0,5.65.4h2.7A8.75,8.75,0,0,0,52.59,74,8.59,8.59,0,0,0,44,65"/><path class="cls-2" d="M51.2,82.73,31.41,93.16a6.7,6.7,0,1,1-6.24-11.85L45,70.88A6.7,6.7,0,1,1,51.2,82.73"/><path class="cls-2" d="M42.2,80,31.77,60.22A6.7,6.7,0,0,1,43.62,54l10.43,19.8A6.7,6.7,0,1,1,42.2,80"/></g></g></svg>