<svg width="41" height="45" viewBox="0 0 41 45" fill="none" xmlns="http://www.w3.org/2000/svg">
<g clip-path="url(#clip0)">
<path d="M39.8301 31.6055L30.8613 27.4124C30.4782 27.2342 30.0524 27.1967 29.648 27.3054C29.2436 27.4141 28.8825 27.6632 28.6191 28.0151L24.6472 33.309C18.4138 30.1028 13.3972 24.6302 10.4582 17.8301L15.3109 13.4971C15.6342 13.2103 15.863 12.8164 15.9627 12.375C16.0624 11.9337 16.0276 11.4689 15.8635 11.0511L12.0197 1.26701C11.8396 0.816605 11.5211 0.448861 11.1191 0.227193C10.7171 0.00552506 10.2568 -0.056172 9.81758 0.0527403L1.48945 2.14933C1.06598 2.25601 0.688147 2.51613 0.417636 2.88723C0.147124 3.25833 -9.7552e-05 3.7185 4.8497e-08 4.19263C4.8497e-08 26.5999 16.6482 44.7267 37.1562 44.7267C37.591 44.727 38.013 44.5665 38.3534 44.2714C38.6937 43.9762 38.9323 43.5639 39.0301 43.1018L40.9519 34.0166C41.0511 33.5351 40.9934 33.0309 40.7886 32.5909C40.5839 32.1508 40.2449 31.8024 39.8301 31.6055Z" fill="white"/>
</g>
<defs>
<clipPath id="clip0">
<rect width="41" height="44.7273" fill="white"/>
</clipPath>
</defs>
</svg>
