<svg width="43" height="47" viewBox="0 0 43 47" fill="none" xmlns="http://www.w3.org/2000/svg">
<path d="M38.5799 13.9001C38.6072 14.3168 38.6072 14.7336 38.6072 15.1503C38.6072 27.8597 29.7399 42.504 13.533 42.504C8.53995 42.504 3.90166 40.9264 0 38.1881C0.709416 38.2774 1.39145 38.3072 2.12816 38.3072C6.24802 38.3072 10.0406 36.7892 13.0691 34.1997C9.19478 34.1104 5.94794 31.3423 4.82927 27.5324C5.375 27.6216 5.92065 27.6812 6.49367 27.6812C7.28489 27.6812 8.07619 27.562 8.81282 27.3538C4.77476 26.4608 1.74612 22.5914 1.74612 17.9184V17.7994C2.9193 18.5137 4.28362 18.9602 5.72958 19.0197C3.35585 17.2933 1.80071 14.3466 1.80071 11.0129C1.80071 9.22711 2.23718 7.59005 3.00118 6.16134C7.33939 11.9952 13.8604 15.805 21.1725 16.2218C21.0361 15.5074 20.9542 14.7634 20.9542 14.0193C20.9542 8.72109 24.8831 4.40527 29.767 4.40527C32.3044 4.40527 34.5963 5.56609 36.2061 7.44126C38.1978 7.02458 40.1077 6.22089 41.7994 5.11963C41.1445 7.35203 39.753 9.2272 37.925 10.4177C39.6985 10.2094 41.4174 9.67357 42.9998 8.92953C41.7995 10.8344 40.2988 12.5309 38.5799 13.9001Z" fill="url(#paint0_linear)"/>
<defs>
<linearGradient id="paint0_linear" x1="8.05209" y1="10.3015" x2="36.2747" y2="14.0951" gradientUnits="userSpaceOnUse">
<stop stop-color="#5088F5"/>
<stop offset="1" stop-color="#5BB4F5"/>
</linearGradient>
</defs>
</svg>
